<svg xmlns="http://www.w3.org/2000/svg" viewBox="0 0 400 340" width="400" height="340" role="img" aria-label="Player Profile">
<defs><linearGradient id="bg" x1="0" y1="0" x2="1" y2="1"><stop offset="0%" stop-color="#0a162c"/><stop offset="100%" stop-color="#0f0b1e"/></linearGradient></defs>
<rect width="400" height="340" rx="12" fill="url(#bg)" stroke="#1e3a5f" stroke-width="1.5"/>
<rect x="0" y="0" width="400" height="28" rx="12" fill="#0f1f3a"/><rect x="0" y="18" width="400" height="10" fill="#0f1f3a"/>
<text x="14" y="18" font-family="JetBrains Mono,monospace" font-size="8" fill="#00e5ff" letter-spacing="0.8">◆ PLAYER PROFILE</text><circle cx="384" cy="14" r="3.5" fill="#22c55e"><animate attributeName="opacity" values="1;0.3;1" dur="1.5s" repeatCount="indefinite"/></circle>
<!-- avatar -->
<rect x="14" y="38" width="110" height="110" rx="10" fill="#020617" stroke="#1e3a5f" stroke-width="1"/>
<g transform="translate(34,48)">
  <rect width="70" height="70" rx="10" fill="#0a162c" stroke="#1e3a5f" stroke-width="1"/>
  <g transform="translate(15,6)" shape-rendering="crispEdges">
    <!-- pixel avatar 40x58 — proporsional, tidak gepeng -->
    <rect x="8" y="6" width="24" height="24" fill="#f0c9a8"/>
    <rect x="6" y="4" width="28" height="12" fill="#0a0a0a"/><rect x="8" y="2" width="24" height="4" fill="#0a0a0a"/>
    <rect x="12" y="14" width="4" height="4" fill="#020617"/><rect x="24" y="14" width="4" height="4" fill="#020617"/>
    <rect x="13" y="15" width="1" height="1" fill="#fff" opacity="0.9"/><rect x="25" y="15" width="1" height="1" fill="#fff" opacity="0.9"/>
    <rect x="6" y="30" width="28" height="18" fill="#1e3a5f"/><rect x="4" y="32" width="4" height="10" fill="#1e3a5f"/><rect x="32" y="32" width="4" height="10" fill="#1e3a5f"/>
    <rect x="10" y="48" width="8" height="10" fill="#0f172a"/><rect x="22" y="48" width="8" height="10" fill="#0f172a"/>
  </g>
  <text x="35" y="66" font-family="JetBrains Mono,monospace" font-size="5" fill="#64748b" text-anchor="middle">LVL 07</text>
</g>
<g font-family="JetBrains Mono,monospace">
  <text x="138" y="54" font-size="6.5" fill="#a855f7" letter-spacing="0.6">CLASS</text><text x="138" y="66" font-size="8.5" fill="#fff" font-weight="700">Fullstack Developer</text>
  <text x="138" y="84" font-size="6.5" fill="#a855f7">STATUS</text><text x="138" y="96" font-size="7.5" fill="#e9d5ff">Informatics Student 🎓</text>
  <text x="138" y="114" font-size="6.5" fill="#a855f7">TITLE</text><text x="138" y="126" font-size="7" fill="#cbd5e1">Cloud Enthusiast</text><text x="138" y="136" font-size="7" fill="#cbd5e1">Network Engineer</text>
  <text x="138" y="154" font-size="6.5" fill="#a855f7">LOCATION</text><text x="138" y="166" font-size="7" fill="#94a3b8">Cirebon, Jawa Barat</text>
</g>
<rect x="14" y="160" width="372" height="1" fill="#1e3a5f" opacity="0.5"/>
<!-- specialization bars -->
<g font-family="JetBrains Mono,monospace" font-size="6">
  <text x="14" y="176" fill="#64748b">SPECIALIZATION</text>
  <text x="14" y="190" fill="#00e5ff">⚔ Software Dev</text><rect x="14" y="194" width="372" height="6" rx="3" fill="#1e293b"/><rect x="14" y="194" width="260" height="6" rx="3" fill="#00e5ff"/>
  <text x="14" y="212" fill="#7dd3fc">☁ Cloud</text><rect x="14" y="216" width="372" height="6" rx="3" fill="#1e293b"/><rect x="14" y="216" width="210" height="6" rx="3" fill="#38bdf8"/>
  <text x="14" y="234" fill="#86efac">🌐 Network</text><rect x="14" y="238" width="372" height="6" rx="3" fill="#1e293b"/><rect x="14" y="238" width="280" height="6" rx="3" fill="#22c55e"/>
  <text x="14" y="256" fill="#d8b4fe">🤖 AI</text><rect x="14" y="260" width="372" height="6" rx="3" fill="#1e293b"/><rect x="14" y="260" width="160" height="6" rx="3" fill="#a855f7"/>
</g>
<!-- bottom cards -->
<g font-family="JetBrains Mono,monospace" font-size="6">
  <rect x="14" y="278" width="118" height="48" rx="8" fill="#020617" stroke="#1e3a5f" stroke-width="1"/><text x="24" y="292" fill="#64748b">🌐 WEBSITE</text><text x="24" y="304" fill="#00e5ff" font-size="6.5">dikaxcloud.web.id</text>
  <rect x="141" y="278" width="118" height="48" rx="8" fill="#020617" stroke="#1e3a5f" stroke-width="1"/><text x="151" y="292" fill="#64748b">📧 EMAIL</text><text x="151" y="304" fill="#cbd5e1" font-size="5">andhikapratama...</text>
  <rect x="268" y="278" width="118" height="48" rx="8" fill="#1a1030" stroke="#a855f7" stroke-opacity="0.4" stroke-width="1"/><text x="278" y="292" fill="#a855f7">🎓 UNIVERSITY</text><text x="278" y="304" fill="#e9d5ff" font-size="5.5">Mercu Buana</text><text x="278" y="312" fill="#22c55e" font-size="5">● IN PROGRESS</text>
</g>
</svg>